<svg fill="none" height="24" viewBox="0 0 24 24" width="24" xmlns="http://www.w3.org/2000/svg"><g fill="#c93717"><path d="m12 21c-1.78 0-3.52009-.5278-5.00013-1.5168-1.48004-.9889-2.63359-2.3945-3.31478-4.039-.68119-1.6446-.85942-3.4542-.51215-5.2.34726-1.74584 1.20443-3.34948 2.4631-4.60816 1.25868-1.25867 2.86232-2.11584 4.60816-2.4631 1.7458-.34727 3.5554-.16904 5.2.51215 1.6445.68119 3.0501 1.83474 4.039 3.31478.989 1.48004 1.5168 3.22013 1.5168 5.00013 0 2.387-.9482 4.6761-2.636 6.364-1.6879 1.6878-3.977 2.636-6.364 2.636zm0-16.5c-1.4834 0-2.9334.43987-4.16677 1.26398s-2.19467 1.99545-2.76232 3.3659c-.56766 1.37042-.71618 2.87842-.4268 4.33332.28939 1.4548 1.0037 2.7912 2.05259 3.8401 1.0489 1.0489 2.38527 1.7632 3.8401 2.0526 1.4549.2894 2.9629.1409 4.3333-.4268 1.3705-.5677 2.5418-1.529 3.3659-2.7623.8241-1.2334 1.264-2.6834 1.264-4.1668 0-1.9891-.7902-3.89677-2.1967-5.3033-1.4065-1.40652-3.3142-2.1967-5.3033-2.1967z"/><path d="m12 13c-.1981-.0026-.3874-.0824-.5275-.2225s-.2199-.3294-.2225-.5275v-3.5c0-.19891.079-.38968.2197-.53033.1406-.14065.3314-.21967.5303-.21967s.3897.07902.5303.21967c.1407.14065.2197.33142.2197.53033v3.5c-.0026.1981-.0824.3874-.2225.5275s-.3294.2199-.5275.2225z"/><path d="m12 16c-.1981-.0026-.3874-.0824-.5275-.2225s-.2199-.3294-.2225-.5275v-.5c0-.1989.079-.3897.2197-.5303.1406-.1407.3314-.2197.5303-.2197s.3897.079.5303.2197c.1407.1406.2197.3314.2197.5303v.5c-.0026.1981-.0824.3874-.2225.5275s-.3294.2199-.5275.2225z"/></g></svg>